<svg width="60" height="60" viewBox="0 0 60 60" fill="none" xmlns="http://www.w3.org/2000/svg">
<rect width="60" height="60" rx="30" fill="white"/>
<path d="M22.3478 23.9296C22.1159 23.7152 22 23.4562 22 23.1524C22 22.8308 22.1159 22.5539 22.3478 22.3216C22.5619 22.1072 22.8294 22 23.1505 22C23.4716 22 23.7391 22.1072 23.9532 22.3216L30 28.3786L36.0468 22.3216C36.2609 22.1072 36.5284 22 36.8495 22C37.1706 22 37.4381 22.1072 37.6522 22.3216C37.8841 22.5539 38 22.8308 38 23.1524C38 23.4562 37.8841 23.7152 37.6522 23.9296L31.6054 29.9866L37.6522 36.0436C37.8841 36.2758 38 36.5528 38 36.8744C38 37.1781 37.8841 37.4372 37.6522 37.6516C37.4381 37.8839 37.1706 38 36.8495 38C36.5284 38 36.2609 37.8839 36.0468 37.6516L30 31.6214L23.9532 37.6516C23.7391 37.8839 23.4716 38 23.1505 38C22.8294 38 22.5619 37.8839 22.3478 37.6516C22.1159 37.4372 22 37.1781 22 36.8744C22 36.5528 22.1159 36.2758 22.3478 36.0436L28.3946 29.9866L22.3478 23.9296Z" fill="#1D1D1F"/>
</svg>
